<?xml version="1.0" standalone="no"?>
<!DOCTYPE svg PUBLIC "-//W3C//DTD SVG 20010904//EN"
 "http://www.w3.org/TR/2001/REC-SVG-20010904/DTD/svg10.dtd">
<svg version="1.0" xmlns="http://www.w3.org/2000/svg"
 width="720.000000pt" height="569.000000pt" viewBox="0 0 720.000000 569.000000"
 preserveAspectRatio="xMidYMid meet">

<g transform="translate(0.000000,569.000000) scale(0.100000,-0.100000)"
fill="#000000" stroke="none">
<path d="M0 2845 l0 -2845 3600 0 3600 0 0 2845 0 2845 -3600 0 -3600 0 0
-2845z m4208 779 l2 -722 -40 -16 c-48 -19 -96 -21 -103 -3 -3 6 -3 300 0 652
5 634 4 640 -15 616 -17 -21 -25 -23 -76 -19 -31 3 -59 7 -62 10 -3 4 4 28 15
53 12 26 21 52 21 56 0 5 10 30 21 55 l22 45 106 -3 106 -3 3 -721z m-946 586
c22 -69 48 -152 58 -185 64 -206 182 -584 189 -605 5 -14 26 -78 46 -143 22
-71 41 -115 46 -110 5 5 22 54 38 109 55 189 151 509 160 534 5 14 17 51 26
82 l17 57 66 -6 c37 -3 68 -7 69 -8 3 -2 -21 -79 -117 -385 -34 -107 -68 -215
-75 -240 -7 -25 -34 -112 -60 -195 -26 -82 -50 -161 -54 -175 -7 -23 -12 -25
-83 -28 l-75 -3 -17 63 c-10 35 -27 90 -37 123 -11 33 -76 251 -145 485 -69
234 -132 448 -140 475 -9 28 -18 62 -21 77 -8 39 -29 54 -28 21 0 -24 -5 -27
-58 -38 -31 -6 -59 -9 -62 -7 -8 8 -6 218 2 226 4 3 54 5 111 4 l104 -3 40
-125z m783 -175 l0 -70 -40 1 c-22 1 -176 3 -341 4 l-301 3 -17 58 c-9 32 -16
63 -16 69 0 7 118 9 358 8 l357 -3 0 -70z m-892 4 c10 -28 17 -57 17 -63 0 -7
-28 -20 -62 -31 -78 -22 -139 -80 -156 -146 -7 -24 -17 -120 -23 -213 -16
-243 7 -581 42 -621 5 -5 9 -57 9 -117 0 -98 -2 -107 -17 -101 -44 16 -143
125 -143 157 0 8 -4 17 -9 20 -26 16 -36 149 -36 471 0 463 16 527 158 634 27
21 139 60 173 60 29 1 32 -3 47 -50z m1124 12 c104 -64 136 -129 149 -305 l7
-86 -80 0 -80 0 -6 90 c-4 62 -11 95 -21 106 -12 12 -16 38 -16 115 0 54 3 99
8 99 4 0 21 -9 39 -19z m-1135 -666 c2 -289 3 -616 3 -727 l0 -203 -64 -3
c-45 -2 -67 1 -72 10 -5 7 -9 322 -9 699 l0 686 23 20 c33 30 59 42 90 43 l27
0 2 -525z m1305 -241 c11 -29 -15 -237 -36 -284 -38 -87 -126 -142 -257 -162
-91 -13 -886 -18 -946 -5 l-38 8 0 69 0 70 33 -8 c17 -4 199 -7 402 -7 402 0
520 10 589 48 67 37 81 65 84 170 2 51 5 98 7 105 7 19 154 17 162 -4z m-237
-579 l0 -115 -69 0 c-47 0 -70 4 -74 13 -3 7 -4 56 -3 108 l1 94 50 6 c106 12
95 24 95 -106z m-2878 -455 c32 0 88 -47 88 -73 0 -27 -42 -28 -68 -2 -33 34
-84 34 -117 0 -33 -32 -35 -110 -4 -149 28 -36 90 -37 123 -1 20 22 27 24 51
15 25 -10 26 -12 13 -32 -57 -86 -191 -88 -252 -5 -16 22 -21 43 -21 96 0 58
4 72 27 103 27 35 85 61 116 52 8 -2 27 -4 44 -4z m3446 -23 c12 -11 22 -26
22 -34 0 -18 -37 -16 -48 3 -11 20 -83 30 -111 15 -12 -7 -21 -21 -21 -36 0
-19 9 -26 45 -39 25 -9 65 -23 90 -32 48 -17 59 -36 53 -90 -7 -63 -116 -95
-194 -58 -36 17 -59 48 -49 64 10 17 30 11 53 -15 16 -18 32 -25 59 -25 55 0
82 10 88 31 11 34 -12 57 -70 70 -30 7 -68 20 -85 30 -25 16 -30 25 -30 59 0
45 22 71 68 81 43 10 105 -2 130 -24z m317 4 c29 -16 48 -61 26 -61 -5 0 -27
12 -48 26 -30 21 -46 25 -78 21 -51 -7 -95 -55 -95 -104 0 -49 28 -109 56
-122 50 -23 138 -5 149 30 9 29 -2 39 -46 39 -33 0 -39 3 -39 20 0 19 5 21 63
18 l62 -3 3 -51 c3 -49 1 -53 -30 -72 -43 -27 -117 -37 -161 -23 -18 6 -47 25
-62 41 -24 25 -30 41 -33 94 -3 44 1 72 12 94 17 32 58 66 91 75 31 8 97 -3
130 -22z m604 0 c47 -33 64 -66 65 -128 1 -44 -5 -67 -22 -95 -43 -69 -153
-87 -222 -36 -36 26 -50 65 -50 135 0 51 6 66 46 121 1 2 20 10 41 18 45 16
108 10 142 -15z m-3869 -6 c0 -25 -1 -25 -85 -25 l-85 0 0 -35 0 -34 78 -3
c74 -3 77 -4 77 -28 0 -26 1 -26 -107 -29 -48 -1 -48 -1 -48 -36 l0 -35 90 0
90 0 0 -30 0 -30 -122 2 -123 3 -3 153 -3 152 121 0 120 0 0 -25z m287 -98
l46 -118 34 88 c19 48 39 103 44 121 8 27 15 32 39 32 l30 0 0 -156 c0 -143
-1 -155 -17 -152 -16 3 -18 18 -21 123 l-3 120 -42 -112 c-44 -117 -60 -144
-76 -128 -7 8 -69 163 -94 235 -3 8 -6 -43 -6 -113 -1 -117 -3 -128 -18 -125
-16 3 -18 19 -21 143 -1 76 0 145 3 153 3 8 16 12 31 10 23 -3 31 -16 71 -121z
m303 13 c0 -106 1 -112 26 -137 21 -21 32 -25 64 -20 65 8 72 23 78 153 4 103
7 114 23 114 17 0 19 -9 19 -111 0 -87 -4 -117 -17 -140 -40 -67 -152 -78
-205 -19 -27 30 -28 33 -28 150 0 113 1 120 20 120 19 0 20 -7 20 -110z m332
-22 l3 -133 73 0 c68 0 72 -1 72 -22 0 -22 -3 -22 -95 -22 l-95 0 0 155 c0
147 1 154 20 154 18 0 20 -8 22 -132z m436 115 c-2 -14 -15 -19 -51 -21 l-47
-3 0 -129 c0 -71 -4 -131 -9 -134 -5 -4 -16 -3 -25 0 -13 5 -16 26 -16 135 l0
129 -50 0 c-43 0 -50 3 -50 20 0 19 7 20 126 20 114 0 125 -2 122 -17z m92
-137 c0 -149 -1 -155 -20 -153 -19 1 -20 8 -20 154 0 146 1 153 20 153 19 0
20 -7 20 -154z m300 133 c0 -15 -6 -20 -22 -19 -13 1 -35 2 -50 1 l-27 -1 -3
-132 c-3 -125 -4 -133 -23 -133 -19 0 -20 8 -23 133 l-3 132 -34 1 c-57 2 -60
3 -63 22 -3 15 8 17 122 17 121 0 126 -1 126 -21z m253 10 c53 -24 62 -96 17
-141 -16 -16 -30 -33 -30 -38 0 -4 16 -31 35 -58 34 -50 33 -69 -3 -58 -9 4
-33 33 -52 66 -35 60 -35 60 -82 60 l-48 0 0 -65 c0 -58 -2 -65 -20 -65 -19 0
-20 7 -20 155 l0 155 90 0 c49 0 100 -5 113 -11z m268 -9 c28 -52 107 -276
101 -282 -11 -11 -42 1 -42 16 0 7 -6 24 -12 39 -12 25 -17 27 -81 27 l-67 0
-16 -39 c-16 -40 -40 -59 -55 -44 -5 5 4 40 20 78 16 39 43 104 60 145 17 41
31 76 31 78 0 11 54 -6 61 -18z m264 -67 c31 -49 66 -104 78 -123 l22 -35 3
123 c2 110 4 123 20 120 15 -3 17 -19 17 -153 0 -146 -1 -150 -22 -153 -16 -2
-29 8 -51 40 -16 24 -31 48 -33 53 -2 6 -24 42 -49 80 l-45 70 -5 -120 c-4
-104 -7 -120 -22 -123 -17 -3 -18 9 -18 152 l0 156 24 0 c20 0 36 -17 81 -87z
m897 -45 l3 -133 75 -1 c66 -1 75 -4 75 -20 0 -17 -9 -19 -95 -19 l-95 0 -3
153 c-2 146 -2 152 17 152 19 0 21 -8 23 -132z m762 111 c32 -25 34 -66 6
-102 -20 -25 -20 -26 -1 -32 28 -9 47 -60 33 -90 -18 -38 -51 -52 -139 -58
-68 -5 -82 -4 -87 9 -8 21 -8 279 1 287 3 4 41 7 83 7 63 0 82 -4 104 -21z
m-4493 -222 c3 -4 3 -21 1 -38 -4 -26 -8 -30 -31 -27 -26 3 -39 32 -28 62 5
14 48 16 58 3z m2444 -197 c3 -5 -1 -10 -9 -10 -20 0 -21 -19 -1 -26 8 -4 15
-10 15 -15 0 -5 -7 -9 -15 -9 -20 0 -19 -10 3 -26 15 -12 14 -13 -15 -14 -33
0 -33 0 -33 49 0 39 4 51 18 54 28 8 31 7 37 -3z m141 -6 c18 -15 18 -15 -6
-10 -29 6 -44 -2 -53 -26 -8 -22 24 -50 43 -38 16 10 33 3 25 -11 -4 -5 -19
-9 -35 -9 -57 0 -78 79 -27 100 30 12 31 12 53 -6z m321 10 c31 -8 46 -56 27
-83 -23 -32 -77 -29 -92 5 -9 19 -9 30 -1 47 19 35 30 40 66 31z m343 -55 c0
-27 -4 -49 -10 -49 -5 0 -10 25 -10 56 0 34 4 53 10 49 6 -3 10 -28 10 -56z
m110 46 c0 -9 -6 -12 -15 -9 -22 9 -18 -9 5 -24 36 -22 19 -75 -21 -65 -26 7
-24 23 4 23 l22 1 -22 18 c-22 19 -30 51 -16 64 12 13 43 7 43 -8z m261 -15
c24 -31 39 -31 39 1 0 10 5 19 10 19 6 0 10 -22 10 -50 0 -57 -17 -66 -44 -25
-9 14 -21 25 -26 25 -6 0 -10 -11 -10 -25 0 -14 -4 -25 -10 -25 -5 0 -10 25
-10 55 0 30 4 55 10 55 5 0 19 -13 31 -30z m143 -14 c3 -6 13 0 25 14 11 14
22 22 25 19 6 -5 -25 -93 -37 -105 -8 -8 -47 80 -47 104 1 15 2 15 15 -2 8
-10 16 -24 19 -30z m195 12 c23 -40 3 -78 -42 -78 -39 0 -57 15 -57 49 0 60
71 81 99 29z m191 1 c0 -27 15 -24 35 7 9 14 19 23 22 21 7 -8 -26 -105 -38
-113 -10 -5 -32 39 -44 89 -6 22 -4 26 9 21 9 -3 16 -15 16 -25z m168 13 c2
-7 0 -12 -5 -11 -25 4 -36 -3 -15 -11 27 -12 29 -30 2 -30 -11 0 -20 -4 -20
-10 0 -5 9 -10 20 -10 11 0 20 -4 20 -10 0 -5 -16 -10 -35 -10 l-35 0 0 48 c0
27 3 52 7 56 11 11 56 2 61 -12z m100 11 c58 -15 42 -103 -18 -103 -30 0 -30
1 -30 55 0 57 3 61 48 48z m-3752 -53 c8 0 14 10 14 23 0 15 3 18 9 9 12 -19
1 -66 -12 -53 -15 15 -27 14 -27 -4 0 -8 -3 -15 -7 -15 -5 0 -7 15 -6 32 3 54
6 65 10 36 2 -16 11 -28 19 -28z m206 5 c-2 -25 -8 -45 -12 -45 -4 0 -8 20 -7
45 0 25 5 45 11 45 7 0 10 -17 8 -45z m88 0 c0 -25 -4 -45 -10 -45 -11 0 -14
73 -3 83 11 12 13 8 13 -38z m59 -7 c-1 -47 -2 -50 -10 -23 -7 26 -3 75 7 75
2 0 4 -24 3 -52z m104 45 c-20 -4 -23 -11 -24 -51 0 -30 -3 -40 -8 -29 -4 10
-5 34 -3 53 4 30 8 34 31 33 23 -2 24 -2 4 -6z m189 -35 c-6 -61 -22 -72 -22
-16 0 28 -5 48 -12 51 -7 3 -2 6 12 6 24 1 25 -2 22 -41z m118 27 c0 -9 7 -30
16 -46 16 -32 10 -57 -7 -26 -13 22 -45 22 -53 1 -4 -9 -9 -15 -11 -12 -9 9
29 98 42 98 7 0 13 -7 13 -15z m120 5 c-12 -8 -11 -12 7 -32 16 -17 19 -27 12
-40 -11 -20 -44 -24 -55 -7 -4 8 0 9 15 4 29 -9 29 25 0 43 -16 11 -18 16 -9
28 7 8 20 14 29 14 14 0 14 -2 1 -10z m100 -5 c0 -19 14 -19 30 0 18 21 24 11
9 -13 -10 -17 -10 -25 4 -46 21 -32 6 -34 -23 -4 l-20 22 0 -23 c0 -12 -4 -19
-10 -16 -5 3 -10 26 -10 51 0 24 5 44 10 44 6 0 10 -7 10 -15z m344 0 c8 -23
-4 -45 -25 -45 -12 0 -19 -7 -19 -20 0 -11 -4 -20 -10 -20 -5 0 -10 23 -10 50
0 48 1 50 29 50 16 0 31 -6 35 -15z m99 8 c-25 -5 -32 -33 -8 -33 8 0 15 -4
15 -10 0 -5 -7 -7 -15 -4 -9 4 -15 0 -15 -10 0 -9 6 -16 14 -16 8 0 18 -4 21
-10 4 -6 -6 -10 -23 -10 -27 0 -30 4 -35 42 -7 53 -3 58 36 57 24 -1 26 -3 10
-6z m135 -17 c2 -10 -2 -22 -9 -27 -10 -6 -10 -11 1 -23 7 -9 10 -20 6 -24 -4
-4 -16 4 -26 18 l-20 25 0 -22 c0 -13 -4 -23 -10 -23 -5 0 -10 23 -10 51 l0
50 32 -3 c23 -2 34 -9 36 -22z m100 17 c-10 -2 -18 -11 -18 -19 0 -8 8 -14 18
-15 13 0 12 -2 -5 -9 -13 -6 -23 -18 -23 -30 0 -11 -4 -20 -10 -20 -5 0 -10
23 -10 50 0 50 0 50 33 49 17 -1 24 -3 15 -6z m374 -5 c-7 -7 -12 -29 -12 -50
0 -21 -4 -38 -10 -38 -5 0 -10 17 -10 38 0 21 -5 43 -12 50 -9 9 -4 12 22 12
26 0 31 -3 22 -12z m85 -35 c-3 -67 -27 -70 -27 -4 0 38 4 51 14 51 11 0 14
-12 13 -47z m255 22 c11 -14 24 -25 29 -25 5 0 9 11 9 25 0 14 5 25 10 25 6 0
10 -22 10 -50 0 -27 -4 -50 -8 -50 -5 0 -19 11 -32 25 -25 27 -40 25 -40 -6 0
-10 -4 -19 -10 -19 -5 0 -10 23 -10 50 0 56 12 63 42 25z m485 -22 c-4 -66
-27 -70 -27 -4 0 39 4 51 15 51 12 0 15 -10 12 -47z m513 11 c0 -27 5 -37 20
-41 30 -8 24 -23 -10 -23 -29 0 -30 1 -30 50 0 28 5 50 10 50 6 0 10 -16 10
-36z m-3933 4 c-3 -8 -6 -5 -6 6 -1 11 2 17 5 13 3 -3 4 -12 1 -19z m435 -33
c-2 -14 -6 -25 -8 -25 -2 0 -4 11 -4 25 0 14 4 25 9 25 4 0 6 -11 3 -25z
m-105 -17 c-3 -8 -6 -5 -6 6 -1 11 2 17 5 13 3 -3 4 -12 1 -19z m4093 -13 c0
-8 -4 -15 -10 -15 -5 0 -10 7 -10 15 0 8 5 15 10 15 6 0 10 -7 10 -15z m-3393
-1 c-3 -3 -12 -4 -19 -1 -8 3 -5 6 6 6 11 1 17 -2 13 -5z m645 -16 c-7 -7 -12
-8 -12 -2 0 14 12 26 19 19 2 -3 -1 -11 -7 -17z"/>
<path d="M5583 2073 c-12 -2 -34 -18 -48 -34 -48 -58 -22 -174 43 -193 80 -23
142 25 142 111 0 57 -16 89 -55 108 -33 15 -41 16 -82 8z"/>
<path d="M3670 2020 l0 -50 64 0 c70 0 96 14 96 54 0 36 -19 46 -92 46 l-68 0
0 -50z"/>
<path d="M4038 1995 l-26 -65 54 0 53 0 -21 58 c-12 31 -24 60 -28 65 -4 4
-18 -22 -32 -58z"/>
<path d="M5897 2072 c-13 -3 -17 -14 -17 -49 l0 -46 51 5 c63 6 87 27 71 62
-8 18 -20 25 -49 27 -21 2 -46 3 -56 1z"/>
<path d="M5880 1895 l0 -55 43 1 c76 2 92 11 92 49 0 42 -28 60 -92 60 l-43 0
0 -55z"/>
<path d="M4394 1636 c-7 -31 1 -46 26 -46 23 0 36 36 20 55 -19 22 -39 18 -46
-9z"/>
<path d="M5415 1630 c-8 -26 6 -43 31 -38 13 2 19 12 19 28 0 34 -40 41 -50
10z"/>
<path d="M5920 1620 c0 -25 4 -31 18 -28 11 2 17 12 17 28 0 16 -6 26 -17 28
-14 3 -18 -3 -18 -28z"/>
<path d="M2936 1631 c-4 -7 -5 -15 -2 -18 9 -9 19 4 14 18 -4 11 -6 11 -12 0z"/>
<path d="M3480 1645 c0 -8 5 -15 10 -15 6 0 10 7 10 15 0 8 -4 15 -10 15 -5 0
-10 -7 -10 -15z"/>
<path d="M3710 1645 c0 -8 5 -15 10 -15 6 0 10 7 10 15 0 8 -4 15 -10 15 -5 0
-10 -7 -10 -15z"/>
</g>
</svg>
